<svg id="Capa_1" data-name="Capa 1" xmlns="http://www.w3.org/2000/svg" viewBox="0 0 1752.61 689.67"><defs><style>.cls-1,.cls-3{fill:#152037;}.cls-2{fill:#e8eff6;}.cls-3{font-size:320.2px;font-family:PoiretOne-Regular, Poiret One;}.cls-4{letter-spacing:-0.08em;}.cls-5{font-size:147.46px;}</style></defs><title>logo</title><path class="cls-1" d="M125.63,223.78H987.48V649.06s-1.88,69.63-79,71.51H737.2s-135.48,84.68-274.74,0H184s-69.62-13.17-58.33-94.09Z" transform="translate(-124.39 -68.54)"/><path class="cls-1" d="M124.39,207.54s22.12-56.76,74-55.14l70.52,0h5.68v-47.6H417.36v48.29s26.28,6.39,66.76-84.51H708.53s29.83,79.54,59.66,81.67V97l147-.71V149.5s57.21-12.78,72.28,61.08Z" transform="translate(-124.39 -68.54)"/><ellipse class="cls-2" cx="471.3" cy="407.3" rx="220.24" ry="225.36"/><ellipse class="cls-1" cx="473.02" cy="404.58" rx="163.82" ry="159.41"/><path class="cls-2" d="M491.63,527.29S624.72,582.61,705,483.65c0,0,2.11,72.16-91.9,94.34C613.1,578,539.16,598.06,491.63,527.29Z" transform="translate(-124.39 -68.54)"/><ellipse class="cls-2" cx="519.84" cy="360.99" rx="21.99" ry="30.86"/><path class="cls-2" d="M520.79,447.61s27.77-27.11,59.42-8.2a126.24,126.24,0,0,1-11.49-11.78c-3.26-3.82-4.46-5.74-7.52-7.42-5.09-2.79-11.24-2.7-15.44-2.25a34.4,34.4,0,0,0-15.21,5.21C517.56,431.89,520.55,446.57,520.79,447.61Z" transform="translate(-124.39 -68.54)"/><text class="cls-3" transform="translate(907.64 441.83)"><tspan class="cls-4">T</tspan><tspan x="106.62" y="0">enkai</tspan><tspan class="cls-5"><tspan x="0" y="122.18">Producciones</tspan></tspan></text></svg>